<?xml version="1.0" encoding="UTF-8" standalone="no"?>
<svg
   xmlns:dc="http://purl.org/dc/elements/1.1/"
   xmlns:cc="http://creativecommons.org/ns#"
   xmlns:rdf="http://www.w3.org/1999/02/22-rdf-syntax-ns#"
   xmlns:svg="http://www.w3.org/2000/svg"
   xmlns="http://www.w3.org/2000/svg"
   xmlns:sodipodi="http://sodipodi.sourceforge.net/DTD/sodipodi-0.dtd"
   xmlns:inkscape="http://www.inkscape.org/namespaces/inkscape"
   width="1024"
   height="1024"
   viewBox="0 0 270.93333 270.93334"
   version="1.1"
   id="svg8"
   inkscape:version="1.0.2 (e86c870879, 2021-01-15, custom)"
   sodipodi:docname="default_pic_user.svg">
  <defs
     id="defs2" />
  <sodipodi:namedview
     id="base"
     pagecolor="#ffffff"
     bordercolor="#666666"
     borderopacity="1.0"
     inkscape:pageopacity="0.0"
     inkscape:pageshadow="2"
     inkscape:zoom="0.49497475"
     inkscape:cx="156.36619"
     inkscape:cy="556.70584"
     inkscape:document-units="px"
     inkscape:current-layer="layer1"
     inkscape:document-rotation="0"
     showgrid="false"
     units="px"
     showguides="true"
     inkscape:guide-bbox="true"
     inkscape:window-width="3840"
     inkscape:window-height="2050"
     inkscape:window-x="-12"
     inkscape:window-y="-12"
     inkscape:window-maximized="1">
    <inkscape:grid
       type="xygrid"
       id="grid859" />
    <sodipodi:guide
       position="135.46667,354.85597"
       orientation="-1,0"
       id="guide861"
       inkscape:label=""
       inkscape:locked="false"
       inkscape:color="rgb(0,0,255)" />
    <sodipodi:guide
       position="313.23988,135.46667"
       orientation="0,1"
       id="guide863"
       inkscape:label=""
       inkscape:locked="false"
       inkscape:color="rgb(0,0,255)" />
  </sodipodi:namedview>
  <metadata
     id="metadata5">
    <rdf:RDF>
      <cc:Work
         rdf:about="">
        <dc:format>image/svg+xml</dc:format>
        <dc:type
           rdf:resource="http://purl.org/dc/dcmitype/StillImage" />
        <dc:title></dc:title>
      </cc:Work>
    </rdf:RDF>
  </metadata>
  <g
     inkscape:label="레이어 1"
     inkscape:groupmode="layer"
     id="layer1">
    <rect
       id="rect18"
       width="270.93335"
       height="270.93335"
       x="0"
       y="-1.110223e-16"
       style="stroke-width:0.264583;fill:#ededed;fill-opacity:1" />
    <path
       d="m 155.74664,84.819856 c -5.15,-5.5589 -12.34,-8.62012 -20.28,-8.62012 -7.98,0 -15.19,3.0427 -20.32,8.5672 -5.18,5.58536 -7.7,13.17625 -7.11,21.373054 1.17,16.17133 13.48,29.32641 27.43,29.32641 13.95,0 26.24,-13.15244 27.43,-29.32112 0.6,-8.122714 -1.94,-15.697734 -7.15,-21.325424 z m 26.29,109.913214 h -93.14 a 8.2020834,8.2020834 0 0 1 -6.4,-2.94481 c -1.72,-2.05581 -2.41,-4.86304 -1.9,-7.70202 2.23,-12.38779 9.2,-22.79386 20.16,-30.099 9.73,-6.48494 22.06,-10.05417 34.71,-10.05417 12.66,0 24.98,3.57187 34.71,10.05417 10.96,7.3025 17.93,17.70856 20.16,30.09635 0.51,2.83898 -0.18,5.64621 -1.9,7.70202 a 8.2020834,8.2020834 0 0 1 -6.4,2.94746 z"
       id="path867"
       style="fill:#c2c2c2;fill-opacity:1;stroke-width:0.264583" />
  </g>
</svg>
