<?xml version="1.0" encoding="UTF-8" standalone="no"?>
<!DOCTYPE svg PUBLIC "-//W3C//DTD SVG 1.1//EN" "http://www.w3.org/Graphics/SVG/1.1/DTD/svg11.dtd">
<svg width="100%" height="100%" viewBox="0 0 1080 300" version="1.1" xmlns="http://www.w3.org/2000/svg" xmlns:xlink="http://www.w3.org/1999/xlink" xml:space="preserve" xmlns:serif="http://www.serif.com/" style="fill-rule:evenodd;clip-rule:evenodd;stroke-linejoin:round;stroke-miterlimit:2;">
    <g>
        <g transform="matrix(1,0,0,1,-61.3761,-148.349)">
            <path d="M342.371,249.175C342.371,222.035 320.337,200.001 293.198,200.001L118.855,200.001C91.716,200.001 69.682,222.035 69.682,249.175L69.682,347.522C69.682,374.662 91.716,396.696 118.855,396.696L293.198,396.696C320.337,396.696 342.371,374.662 342.371,347.522L342.371,249.175Z" style="fill:rgb(28,127,254);"/>
        </g>
        <g transform="matrix(0.355973,0.205521,-0.22579,0.39108,26.6322,-52.0821)">
            <path d="M295.433,88.802C295.433,79.242 286.906,71.48 276.402,71.48L146.827,71.48C136.323,71.48 127.796,79.242 127.796,88.802C127.796,98.363 136.323,106.125 146.827,106.125L276.402,106.125C286.906,106.125 295.433,98.363 295.433,88.802Z" style="fill:rgb(28,127,254);"/>
        </g>
        <g transform="matrix(-0.355973,0.205521,0.22579,0.39108,262.669,-52.0821)">
            <path d="M295.433,88.802C295.433,79.242 286.906,71.48 276.402,71.48L146.827,71.48C136.323,71.48 127.796,79.242 127.796,88.802C127.796,98.363 136.323,106.125 146.827,106.125L276.402,106.125C286.906,106.125 295.433,98.363 295.433,88.802Z" style="fill:rgb(28,127,254);"/>
        </g>
        <g transform="matrix(12.6581,0,0,12.6581,-5172.09,-3224.92)">
            <g transform="matrix(12,0,0,12,414.759,271.019)">
                <path d="M0.438,-0.216L0.279,-0.711L0.054,-0.711L0.054,-0L0.226,-0L0.226,-0.166L0.209,-0.506L0.381,-0L0.494,-0L0.666,-0.506L0.649,-0.166L0.649,-0L0.821,-0L0.821,-0.711L0.596,-0.711L0.438,-0.216Z" style="fill:white;fill-rule:nonzero;"/>
            </g>
        </g>
        <g transform="matrix(2.53201,0,0,1,-139.015,-210.783)">
            <path d="M112.031,441.991C112.031,441.991 128.132,474.192 135.471,488.87C135.999,489.926 136.205,491.712 135.984,493.321C135.763,494.93 135.164,496.009 134.491,496.009L89.571,496.009C88.899,496.009 88.3,494.93 88.079,493.321C87.858,491.712 88.064,489.926 88.592,488.87C95.931,474.192 112.031,441.991 112.031,441.991Z" style="fill:rgb(28,127,254);"/>
        </g>
    </g>
    <g transform="matrix(1,0,0,1,-129.651,-117.312)">
        <g transform="matrix(151.897,0,0,151.897,458.059,322.986)">
            <path d="M0.438,-0.195L0.255,-0.711L0.063,-0.711L0.063,-0L0.21,-0L0.21,-0.194L0.196,-0.528L0.387,-0L0.488,-0L0.679,-0.528L0.665,-0.194L0.665,-0L0.812,-0L0.812,-0.711L0.62,-0.711L0.438,-0.195Z" style="fill-rule:nonzero;"/>
        </g>
        <g transform="matrix(151.897,0,0,151.897,591.117,322.986)">
            <path d="M0.289,0.079L0.5,-0.528L0.35,-0.528L0.252,-0.199L0.154,-0.528L0.002,-0.528L0.187,0.001L0.171,0.042C0.158,0.081 0.135,0.098 0.08,0.098C0.073,0.098 0.064,0.098 0.058,0.097L0.058,0.204C0.08,0.21 0.094,0.213 0.12,0.213C0.232,0.213 0.271,0.132 0.289,0.079Z" style="fill-rule:nonzero;"/>
        </g>
        <g transform="matrix(151.897,0,0,151.897,667.437,322.986)">
            <path d="M0.433,-0.187C0.433,-0.141 0.397,-0.106 0.322,-0.106C0.238,-0.106 0.181,-0.138 0.181,-0.224L0.034,-0.224C0.034,-0.063 0.18,0.01 0.322,0.01C0.478,0.01 0.58,-0.063 0.58,-0.188C0.58,-0.305 0.499,-0.371 0.343,-0.418C0.251,-0.446 0.202,-0.475 0.202,-0.521C0.202,-0.567 0.239,-0.604 0.316,-0.604C0.395,-0.604 0.433,-0.562 0.433,-0.501L0.579,-0.501C0.579,-0.629 0.476,-0.721 0.318,-0.721C0.165,-0.721 0.056,-0.641 0.056,-0.522C0.056,-0.399 0.164,-0.34 0.293,-0.299C0.409,-0.262 0.433,-0.236 0.433,-0.187Z" style="fill-rule:nonzero;"/>
        </g>
        <g transform="matrix(151.897,0,0,151.897,760.815,322.986)">
            <path d="M0.319,-0.003L0.319,-0.11C0.309,-0.108 0.295,-0.106 0.278,-0.106C0.242,-0.106 0.224,-0.117 0.224,-0.161L0.224,-0.425L0.313,-0.425L0.313,-0.528L0.224,-0.528L0.224,-0.659L0.083,-0.659L0.083,-0.528L0.005,-0.528L0.005,-0.425L0.083,-0.425L0.083,-0.146C0.083,-0.034 0.142,0.01 0.234,0.01C0.268,0.01 0.295,0.004 0.319,-0.003Z" style="fill-rule:nonzero;"/>
        </g>
        <g transform="matrix(151.897,0,0,151.897,812.14,322.986)">
            <path d="M0.3,-0.4C0.316,-0.4 0.337,-0.398 0.352,-0.396L0.353,-0.532C0.343,-0.536 0.324,-0.538 0.31,-0.538C0.258,-0.538 0.218,-0.511 0.192,-0.465L0.188,-0.528L0.054,-0.528L0.054,-0L0.196,-0L0.196,-0.346C0.212,-0.381 0.246,-0.4 0.3,-0.4Z" style="fill-rule:nonzero;"/>
        </g>
        <g transform="matrix(151.897,0,0,151.897,866.208,322.986)">
            <path d="M0.504,-0.086L0.434,-0.163C0.403,-0.124 0.358,-0.104 0.307,-0.104C0.234,-0.104 0.188,-0.15 0.179,-0.218L0.515,-0.218L0.515,-0.278C0.515,-0.435 0.434,-0.538 0.282,-0.538C0.131,-0.538 0.036,-0.425 0.036,-0.265L0.036,-0.246C0.036,-0.105 0.133,0.01 0.298,0.01C0.401,0.01 0.47,-0.038 0.504,-0.086ZM0.281,-0.424C0.347,-0.424 0.375,-0.382 0.376,-0.326L0.376,-0.315L0.18,-0.315C0.19,-0.38 0.221,-0.424 0.281,-0.424Z" style="fill-rule:nonzero;"/>
        </g>
        <g transform="matrix(151.897,0,0,151.897,948.313,322.986)">
            <path d="M0.36,-0L0.503,-0L0.503,-0.008C0.489,-0.035 0.482,-0.069 0.482,-0.129L0.482,-0.353C0.482,-0.476 0.392,-0.538 0.27,-0.538C0.133,-0.538 0.045,-0.462 0.045,-0.37L0.187,-0.37C0.187,-0.41 0.215,-0.434 0.262,-0.434C0.316,-0.434 0.34,-0.402 0.34,-0.354L0.34,-0.323L0.277,-0.323C0.117,-0.323 0.034,-0.259 0.034,-0.148C0.034,-0.057 0.112,0.01 0.213,0.01C0.276,0.01 0.318,-0.016 0.346,-0.047C0.35,-0.029 0.354,-0.013 0.36,-0ZM0.244,-0.098C0.201,-0.098 0.175,-0.124 0.175,-0.159C0.175,-0.205 0.208,-0.241 0.283,-0.241L0.34,-0.241L0.34,-0.149C0.326,-0.123 0.291,-0.098 0.244,-0.098Z" style="fill-rule:nonzero;"/>
        </g>
        <g transform="matrix(151.897,0,0,151.897,1029.75,322.986)">
            <path d="M0.282,-0.424C0.332,-0.424 0.362,-0.406 0.362,-0.336L0.362,-0L0.503,-0L0.503,-0.365C0.519,-0.401 0.547,-0.424 0.591,-0.424C0.64,-0.424 0.67,-0.407 0.67,-0.337L0.67,-0L0.812,-0L0.812,-0.336C0.812,-0.484 0.745,-0.538 0.642,-0.538C0.571,-0.538 0.518,-0.507 0.483,-0.458C0.457,-0.514 0.406,-0.538 0.343,-0.538C0.277,-0.538 0.227,-0.513 0.192,-0.47L0.187,-0.528L0.054,-0.528L0.054,-0L0.196,-0L0.196,-0.374C0.213,-0.405 0.241,-0.424 0.282,-0.424Z" style="fill-rule:nonzero;"/>
        </g>
    </g>
</svg>
